<?xml version="1.0" encoding="UTF-8"?>
<svg id="blackShapes" xmlns="http://www.w3.org/2000/svg" viewBox="0 0 107.66 90.64">
  <defs>
    <style>
      .cls-1 {
        fill: none;
        stroke: #fff;
        stroke-miterlimit: 10;
      }
    </style>
  </defs>
  <path class="cls-1" d="m104.86,83.74c-2.43-7.13-6.17-12.84-9.17-17.34-2.75-4.53-11.68-13.66-14.26-16.08l-.02-.02c-2.43-2.58-3.68-3.4-4.57-3.76-.08-.04-.15-.11-.21-.17-.83-1.06-2.43-2.22-3.91-3.28,0,0-.02,0-.02-.02-5.44-3.32-7.79-5.41-8.19-5.8-.06-.04-.08-.1-.13-.14-.06-.19-.27-.68-.72-1.78-.52-1.27-.14-3.87-.02-5.73.05-.51-.02-1.04-.19-1.52-.36-1.02-.95-1.68-1.39-2.06-.28-.25-.66-.4-1.06-.44l-.44-.02c-.34-.02-.66-.19-.89-.42l-1.12-1.19c-.24-.23-.36-.53-.45-.84-.02-.05-.04-.09-.06-.13l-.83-1.25c-.1-.15-.27-.23-.44-.21h-.02c-.23,0-.47-.17-.53-.38-.21-.64-.74-1.57-1.27-2.29-.04-.08-.13-.14-.17-.23-.53-.53-2.01-2.62-2.45-3.26-.09-.12-.15-.27-.15-.4l-.06-2.9c0-.21-.11-.42-.26-.55-.12-.08-.25-.19-.4-.25-.06-.04-.13-.08-.19-.08-2.03-.64-3.91-2.08-5.1-2.9-.14-.09-.29-.19-.4-.32-1.08-1.06-3.02-2.39-3.32-2.66-.13-.11-.99-.53-1.92-.98-.02-.02-.05-.02-.07-.04-1.03-.46-2.15-.97-2.56-1.1-.02-.02-.04-.02-.06-.04-.04,0-.06-.02-.11-.02-.16-.06-.36-.13-.52-.15-1.02-.3-2.16-.44-3.3-.51h-.38c-.45-.02-.87-.02-1.29,0h-.49c-2.31.09-4.32.38-5.03.53-1.76.32-3.35.74-4.78,1.21-.03,0-.07.02-.11.02-.02.02-.04.02-.06.02-1.51.51-2.84,1.06-4.02,1.63-.15.06-.28.12-.4.19-3.24,1.61-5.38,3.36-7.07,4.55-.32.25-.63.5-.93.8-.23.23-.49.51-.72.78-.08.09-.17.19-.25.3-.11.12-.21.25-.3.4-1.8,2.37-3.11,5.54-4,8.16-.06.22-.12.43-.21.62-.78,2.45-1.16,4.27-1.16,4.27l-.23,1.42-.07.27-.04.3-.02.19-.04.21v.34c0,.78.02,3.04,0,4.63v.8s.02.02.02.05c.17.95.51,1.48.85,1.77.12.11.23.19.36.23.02.03.06.05.1.07.11.04.19.06.28.08.06.02.1.05.16.05v.02c.07,0,.11,0,.15.04.05,0,.07.02.09.04.08.06.15.15.19.25,0,.05.02.11.04.15.02.04.04.11.06.15.32.83,1.1,1.69,1.89,2.41.02.02.06.04.08.07.32.31.64.57.93.8.07.06.13.1.19.15.11.08.19.14.28.23.1.06.19.13.27.17.45.32.76.46.97.51.11.04.22.08.26.17.04.02.06.04.06.06.13.17.13.42-.02.61-.25.28-.63.53-1.14.95-.57.49-.8.87-.89,1.34v.02c0,.15-.02.27-.02.4-.02.02-.02.04-.02.08,0,.17,0,.38.02.64v.23c.04.32.27.76.61,1.25,0,.02.04.06.07.08t.02.02c.76,1.13,1.92,2.35,2.13,2.56,0,.03.02.05.05.07.08.12.52.72,1.79,1.67l.09.08c.17.19.34.36.51.53.69.72,1.31,1.16,2.17,1.76.03,0,.05.02.07.04.4.25.84.55,1.39.93.15.11.3.19.43.3,2.43,1.67,11.38,3.8,11.38,3.8l.71.19h.05l5.96,1.42s.02.02.02.02c.13.04.87.28,1.82.57,1.63.51,3.85,1.21,4.48,1.38,1.02.25,2.69.61,2.69.63,0,.09,4.06,1.61,4.06,1.61l10.28,4.31,3.68,1.59s4.1,2.01,7.02,3.13h.02c2.65,1.31,3.87,1.65,4.13,1.71.04,0,.06.02.1.05.38.19,2.92,1.48,3.54,1.71.35.15,3.63,1.71,6.53,3.11.02,0,.04.02.06.02h.03c.06.02.12.06.21.1.02.03.06.05.1.07.09.02.15.06.21.08.09.02.17.07.26.11,1.86.91,3.4,1.65,3.66,1.78l.04.02,4.36,1.67h.04l.02.02.02.02s4.89,2.03,6.01,2.41c.02.02.04.02.06.02.8.17,1.23-.34,1.38-.53.02-.02.04-.04.06-.06,0,0,.44-.06.55-.06-.02-.02-.06-.07-.11-.09.05.02.07.04.11.07.34.25.78.65.78.65,0,0,2.16,2.14,3.55,1.29,1.4-.82.19-4.23.19-4.23ZM30.67,54.03c-.85.42-1.04-.03-2.01-.2-.95-.16-2.13-.84-3.89-1.71-1.52-1.86,3.13-.97,3.13-.97,0,0,2.33,1.75,2.77,2.09.42.32,0,.79,0,.79Zm-7.47-19.18c-.08.08-.16.15-.25.21-.68.49-1.67.8-2.11.97-.07.02-.13.04-.19.04-.07.03-.11.03-.17.05-.55.06-1.12.06-1.76.1h-.57c-.76,0-2.41-.08-3.85-.15-.88-.04-1.51-.83-1.37-1.67v-.02c0-.06.02-.1.04-.17s.04-.15.06-.21v-.02c.13-.38.21-.72.38-.99.36-.6.59-1.61.66-1.95.02-.08.04-.15.06-.23.11-.28.42-1.04,1.06-2.37.04-.13.13-.23.21-.34,2.43-2.81,4.1-2.69,4.76-2.94.06-.02.1-.04.17-.06.06,0,.12-.02.19-.04l.02-.03c.06,0,.13-.02.19-.04h.02s.04-.02.06-.02c2.39-.55,7.07.4,8.38.74,1.35.36,4.23,2.92,6.37,4.44.02.02.06.07.1.09.76.53,1.23,1.41,1.5,2.3.43,1.36.45,2.77.45,3.24v.17s-.07.1-.09.12c-.27.45-.27,2.18-.02,4.51.02.1.02.17.07.25.03.12.07.23.11.33.04.11.09.21.14.31.02.08.06.15.1.22.08.12.16.23.24.34s.16.22.25.32c.1.11.2.21.31.28.1.09.2.17.3.25.09.07.18.13.27.19.09.06.17.11.26.16h.01c.09.06.17.11.26.15.01,0,.01.01.01.01.08.05.17.09.25.12.01,0,.01.01.01.01.09.04.17.08.25.11h.01c.24.11.47.19.65.26.08.03.14.05.2.07.01-.01.03,0,.04.01.11.05.2.08.24.11.34.24,1.12.94,2.28,1.87.03.01.05.03.08.05.02.01.04.03.06.05.02.02.04.05.05.07.05.05.09.1.13.15.02.03.04.07.06.1.04.06.06.12.08.18.04.08.06.16.07.24h0c.07.3.13.58.19.83.07.25.13.47.19.67h0c.04.22.07.41.04.6.34.76.14,1.17.14,1.17,0,0-.33.27-1.47.08h-.02c-.66-.11-1.37-.23-1.97-.32-.17-.04-.34-.08-.48-.1-.07,0-.11,0-.15-.03h-.02c-.24-.04-.45-.08-.59-.1h.1s-.04,0-.06-.01h-.04s0-.02-.03-.02c-.04,0-.1-.04-.16-.04-.7-.25-2.63-.57-4.45-.82-.26-.04-.51-.07-.76-.1-.3-.04-.58-.08-.85-.11-.71-.09-1.32-.15-1.73-.19-.28-.02-.47-.04-.53-.03-.04.02-.1,0-.17-.02h-.02l-.31.06-.05-.02c-.1-.03-.22-.07-.35-.11-.88-.28-2.28-.82-2.99-1.18h-.02s-.04-.02-.06-.04c-.09-.04-.19-.08-.28-.1-.1-.03-.21-.05-.31-.05h-.15c-.87,0-1.72-.04-2.5-.17-.08-.02-.17-.02-.23-.04l-1.14-.24c-.13-.04-1.27-.3-2.24-.55,0,0,1.58-2.2,3.02-2.43,0,0,.05-.01.08-.07-.04-1.68-3.65-.8-3.1-1.35.23-.24,1.19-.69,2.23-1.12,1.03-.44,2.15-.87,2.67-1.06,0-.05.02-.07.06-.09.02-.03.05-.07.07-.1.03-.03.05-.06.08-.09.19-.2.43-.39.72-.55,0-.02.01-.02.01-.02h.01c.32-.22.68-.39,1.06-.56h.02c.57-.25,1.17-.46,1.74-.63.16-.04.25-.12.31-.19.01,0,.01-.01.02-.02.09-.09.15-.16.19-.25v-.04c.05-.04.05-.09.05-.09,0,0,0-.02.02-.04.03-.11.04-.21.04-.32,0-.12-.03-.26-.06-.38,0,0-.2-.52-.45-.61-.76-.62-2.34-.91-3.28-1.06-.08-.02-.14-.02-.21-.04-.06,0-.14,0-.19-.02-.06-.02-.12-.04-.19-.07-.12-.04-.23-.1-.36-.12-.06,0-.1,0-.17-.02,0,0-1.24-.21-2.01.38Zm23.67-3.61c-2.52.69-4.85-1.46-4.09-3.67,1.43-2.06,2.67-2.83,4.35-2.68,1.68.14,3.76-.77,4.3-1.35.55-.59,3.25-1.39,3.73.36,0,0,.32,5.04-2.01,5.51-2.34-.11-4.71.4-6.28,1.83Zm21.15,19.23s.36.49.34.93c0,0,1.3,4.3,1.89,5.19-1.32-.38-3.23-2.12-6.59-2.48h-.02c-.23,0-.46-.06-.74-.13-1.24-.38-2.85-1.44-4.44-1.24-1.48-.72-2.87-2.18-4.4-2.5-.08-.02-.17-.04-.27-.04-.95-.15-1.59-.26-1.59-.26,0,0-2.07-2.92-2.01-3.34,0-.08.02-.23.02-.42,0-.04.02-.09.02-.17v-.04s.03-.02.03-.05c.06-.9.16-2.36.25-2.66.27-.47,3.09-2.43,6.98-.89.13.04.25.09.36.13h.04c.15.06.28.1.4.17h.04s.05,0,.09.02c.21.1.4.15.53.19.42.15.48.15.51.15,0,0,4.72,2.8,7.32,5.72.49.34,1.24,1.72,1.24,1.72Z"/>
</svg>