<?xml version="1.0" encoding="UTF-8"?>
<svg id="blackShapes" xmlns="http://www.w3.org/2000/svg" viewBox="0 0 107.66 90.64">
  <defs>
    <style>
      .cls-1 {
        fill: #fff;
        stroke-width: 0px;
      }
    </style>
  </defs>
  <path class="cls-1" d="m104.86,83.74c-6.37-17.34-19.06-30.66-32.16-40.67-7.21-4.99-7.37-3.95-9.04-7.72-.92-2.32,1.21-7.46-1.6-9.31-.63-.67-1.78-.19-2.39-.88-1.03-.85-1.74-2.33-2.46-3.41-1.36-.38-1.39-2.01-2.43-3.11-.61-.74-2.28-2.74-2.6-3.66,0,0-.06-2.9-.06-2.9,0-.4-.33-.65-.66-.8-2.04-.65-4.08-2.12-5.29-2.98-2.76-2.57-5.25-3.97-8.33-5.14-5.26-1.53-11.45-.32-16.01,1.08C9.64,7.95,3.51,17.09,2.31,28.67c0,.97,0,3.79,0,5.45.31,1.38.69,1.98,1.77,2.25v.02c.07,0,.11,0,.15.04.81,1.52,2.19,3.18,3.75,4.25.63.64,2.02.56,1.54,1.52-.49.5-2.02,1.45-2.03,2.29,0,.15-.02.29-.02.42-.09.81.03,1.5.68,2.28t.02.02c.76,1.13,1.92,2.35,2.13,2.56,5.56,7.22,17.5,9.07,24.6,10.79,12.64,3.44,21.65,7.85,34.07,13.24,8.08,3.3,14.88,7.32,23.27,10.43,0,0,.05.05.04.04.04.01,4.93,2.05,6.07,2.43,1.28.2,1.03-.73,1.95-.64-.02-.02.06.02.08.02,3.41,3.41,6.17,2.71,4.48-2.35Zm-60.08-34.86c.12.71-.45,1.35-1.17,1.28-1.17-.1-2.75-.5-3.46-.58h.1s-.06-.01-.1-.01c-3.22-1.16-9.14-.71-12.42-2.58-2.64-.4-9.63-.56-4.38-3.4.44-.24.46-.9.02-1.12-1-.51-2.97-.1-2.55-.52.55-.49,3.08-1.49,4.36-1.97.28-.11.55-.26.75-.49.19-.21.44-.38.72-.55,0-.02.01-.02.01-.02.9-.66,2.21-.85,3.14-1.38.09-.1.21-.19.21-.31.62-2.35-3.35-2.23-4.8-2.77-.8-.52-3.5,1.4-4.37,1.56-2.25.38-3.84.12-6.54.04-1.68-.1-1.55-2.04-.89-3.08.93-2.13.48-2.06,1.78-4.55,2.2-3.07,4.41-3.02,5.35-3.41,6.62-.88,9.99.88,15.02,5.12,1.11.61,1.69,2.41,1.93,3.88.13.77.1,1.56-.05,2.33-.34,1.75-.24,6.06,2.12,6.88.09.06.19.1.27.15.08.06.19.09.26.13.37.18.77.32,1.11.44.38.19,1.13.74,1.89,1.41.7.61,1.2,1.42,1.43,2.32.1.4.2.81.26,1.19Zm1.89-17.6c-6.34.56-4.01-6.94.46-6.4,3.43.68,5.69-4.23,8.03-.99.52,8.06-4.06,3.85-8.49,7.39Zm16.99,22.82c-1.71-.24-3.44-1.5-5.4-1.47-1.4-.75-2.74-2.09-4.19-2.4-.8-.21-1.59-.02-2.06-.58-.75-1.23-2.15-2.74-1.74-3.74-.55-4.13,3.38-5.03,8.05-3.25.91.03,9.01,4.82,10.05,8.73,2.34,6.55.52,3.67-4.7,2.71Z"/>
</svg>